<?xml version="1.0" encoding="UTF-8" standalone="no"?>
<svg xmlns="http://www.w3.org/2000/svg" viewBox="0 0 642.90996 215.56">
   <style>
      polygon, path {
         fill: black;
         stroke: black;
      }
      @media screen and (prefers-color-scheme: dark) {
         polygon, path {
            fill:white;
            stroke: white;
         }
      }
   </style>
   <path id="ps5" d="m 621.99,169.97 h -1.92 v -13.15 h -4.4 v -1.84 h 10.74 v 1.84 h -4.4 z m 13.31,-3.48 v 0 l 4.11,-11.51 h 3 v 15 h -2 v -12.54 0 l -4.55,12.53 h -1.22 l -4.53,-12.53 v 0 12.53 h -1.9 v -15 h 3 z M 596.41,40.5 h -184 v 49.88 c 0,0 -0.56,19.26 23.26,19.26 h 112.47 a 31.57,31.57 0 0 1 12.83,2.61 c 6.28,2.8 13.34,8.5 13.34,20 0,10.32 -5,16.18 -9.95,19.46 a 25,25 0 0 1 -13.76,4 H 412.41 v 14 H 566.5 c 0,0 35,-1.42 35,-37.39 0,-18.29 -10.68,-27.35 -20.29,-31.79 a 47,47 0 0 0 -19.8,-4.29 H 449.94 a 11.24,11.24 0 0 1 -5.34,-1.27 c -2.38,-1.29 -5,-3.85 -5,-8.89 V 54.31 H 596.41 Z M 180.82,155.66 v 14 h 78.1 a 38.71,38.71 0 0 0 25.5,-9.23 32.27,32.27 0 0 0 11.38,-25.36 V 75.56 a 21.5,21.5 0 0 1 8,-17 20,20 0 0 1 12.61,-4.25 H 384.5 V 40.5 h -81.09 c 0,0 -35,0.56 -35,37.58 v 55.57 a 24.12,24.12 0 0 1 -3.54,12.91 18.78,18.78 0 0 1 -16.7,9.13 z M 0.5,40.5 v 13.81 h 139.2 a 26.28,26.28 0 0 1 11.22,2.41 c 5.52,2.59 11.72,7.92 11.72,18.73 0,10.5 -6.2,15.75 -11.72,18.35 a 26.78,26.78 0 0 1 -11.4,2.44 H 36.28 a 39.28,39.28 0 0 0 -17.64,4 C 10.05,104.55 0.5,114.7 0.5,131.44 v 38 h 26.79 v -37.83 a 19.66,19.66 0 0 1 1.31,-7.2 c 2.21,-5.67 7.8,-14.77 20.87,-14.77 h 104.1 a 37.78,37.78 0 0 0 10.36,-1.39 c 9.56,-2.72 25.5,-10.58 25.5,-32.8 0,-34.53 -34.37,-34.95 -34.37,-34.95 z"/>
</svg>
