<?xml version="1.0" encoding="UTF-8" standalone="no"?>
<svg
   xmlns="http://www.w3.org/2000/svg"
   viewBox="0 0 120 120">
  <defs
     id="defs7">
    <linearGradient
       x1="0"
       y1="27.216554"
       x2="97.97959"
       y2="70.763036"
       id="linearGradient-1"
       gradientTransform="matrix(1.2247449,0,0,0.81649658,0,19.999999)"
       gradientUnits="userSpaceOnUse">
      <stop
         stop-color="#FF4C1D"
         offset="0%"
         id="stop2" />
      <stop
         stop-color="#9B0063"
         offset="100%"
         id="stop4" />
    </linearGradient>
  </defs>
  <g
     id="stadia-logo-mark"
     stroke="none"
     stroke-width="1"
     fill="none"
     fill-rule="evenodd">
    <path
       d="M 1.0085714,43.341385 C 0.36285714,43.80328 0.00285714,44.536039 0,45.290183 v 0 0.02994 c 0.002857,0.31791 0.0685714,0.640096 0.20428571,0.9466 v 0 L 11.69,72.288238 c 0.508571,1.153312 1.821429,1.717851 3.011429,1.295872 v 0 c 7.52,-2.681557 33.561428,-11.165316 50.414285,-6.589133 v 0 c 0,0 -16.905714,0.977963 -32.192857,12.965852 v 0 c -0.861428,0.677161 -1.148571,1.854709 -0.707143,2.855481 v 0 c 1.241429,2.80416 3.732857,8.440991 5.142857,11.627212 v 0 l 1.98,4.644612 C 39.81,100.19013 41.315714,100.32271 41.98,99.324784 v 0 c 3.567143,-5.371669 9.581429,-8.054652 15.358571,-10.396917 v 0 c 5.918572,-2.397863 12.094286,-4.186994 18.394286,-5.251919 v 0 C 82.445714,82.541169 89.3,82.237516 96.084286,82.837694 v 0 c 1.13,0.09979 2.178571,-0.59305 2.515714,-1.673657 v 0 l 5.18857,-16.582605 c 0.30572,-0.980814 -0.0457,-2.052867 -0.88,-2.655897 v 0 C 97.122857,57.734265 74.204286,43.656443 33.901429,49.311807 v 0 c 0,0 34.391428,-19.755996 78.052861,1.945947 v 0 c 1.32285,0.658628 2.92,-0.03279 3.36142,-1.438433 v 0 L 119.89,35.195493 c 0.0714,-0.22667 0.10571,-0.456192 0.11,-0.682863 v 0 -0.06985 c -0.0129,-0.832552 -0.45857,-1.622336 -1.21571,-2.051442 v 0 C 113.30429,29.290649 94.751429,20 69.23,20 v 0 C 49.668571,19.998574 26.015714,25.455779 1.0085714,43.341385"
       id="Fill-1"
       fill="url(#linearGradient-1)"
       style="fill:url(#linearGradient-1)" />
  </g>
</svg>
