<?xml version="1.0" encoding="UTF-8" standalone="no"?>
<svg
   xmlns="http://www.w3.org/2000/svg"
   viewBox="0 0 210 210"
   id="svg8">
  <g transform="translate(0,-87)">
    <path style="fill:#ff0001;" d="m 144.14698,103.9667 -8.56331,0.0698 h -8.26099 -6.427 v 14.6885 149.02243 14.68799 h 23.23993 l 7.29878,-5.1e-4 c 24.75886,0 44.99539,-20.74275 45.09492,-45.48198 h 0.002 v -0.14315 c 1e-5,-0.0133 5.1e-4,-0.0265 5.1e-4,-0.0398 v -7.29878 h -5.1e-4 v -6.0973 -66.44349 h 0.0119 v -7.29878 c 0,-24.81998 -20.27751,-45.66491 -45.09751,-45.66491 z m -84.366945,5.2e-4 c -24.758867,0 -44.995385,20.74274 -45.094922,45.48198 h -0.0021 v 0.14314 c -1.2e-5,0.0133 -5.17e-4,0.0265 -5.17e-4,0.0398 v 7.29878 h 5.17e-4 v 6.0973 66.44349 h -0.01189 v 7.29878 c 1e-6,24.81999 20.277512,45.66491 45.097506,45.66491 h 7.298779 34.904322 v -14.688 -149.02243 -14.6885 H 95.544777 87.283781 67.078815 v -0.0692 z m 0.567923,14.73967 v 0.0181 h 6.730338 l 5.19e-4,23.85126 v -23.85126 h 20.204966 v 12.8571 136.16533 H 67.067445 v -38.2757 l -5.18e-4,38.2757 H 60.854904 C 37.466929,265.61141 30.317853,251.95595 29.371039,233.27044 v -3.79874 h 37.696406 l -37.696406,-0.001 v -72.53821 l 13.64671,-5.2e-4 a 16.819941,16.819941 0 0 0 -0.03927,0.78394 16.819941,16.819941 0 0 0 16.820161,16.81964 16.819941,16.819941 0 0 0 16.819644,-16.81964 16.819941,16.819941 0 0 0 -9.539467,-15.13913 16.819941,16.819941 0 0 0 0,-5.2e-4 16.819941,16.819941 0 0 0 -7.280177,-1.68052 16.819941,16.819941 0 0 0 -16.780889,16.0352 h -13.64671 v -3.52795 c 0.885295,-18.68359 7.892915,-32.3944 30.976919,-34.69607 z m 96.064932,65.44148 c 10.05206,0 18.07229,8.02022 18.07229,18.07228 0,10.05206 -8.02023,18.07228 -18.07229,18.07228 -10.05206,0 -18.07228,-8.02022 -18.07228,-18.07228 0,-10.05206 8.02022,-18.07228 18.07228,-18.07228 z"/>
  </g>
</svg>
