<?xml version="1.0" encoding="UTF-8" standalone="no"?>
<svg xmlns="http://www.w3.org/2000/svg" viewBox="0 0 80 80">
   <style>
      path {
         fill: #000;
         stroke: #000;
      }
      @media screen and (prefers-color-scheme: dark) {
         path {
            fill:#fff;
            stroke: #fff;
         }
      }
   </style>
   <g transform="matrix(0.44444299,0,0,0.44444299,-0.25427334,-0.06421408)">
      <path d="M 90.740234,1.0996094 C 82.640234,1.0996094 75.941797,3.3 69.841797,7 c -0.1,0 -0.101563,0.099219 -0.101563,0.1992188 0,0.1 0.101172,0.1015624 0.201172,0.1015624 7.8,-1.7 19.599219,4.9992188 20.699219,5.6992188 h 0.09961 0.101563 c 1.1,-0.7 12.899222,-7.3992187 20.699222,-5.6992188 0.1,0 0.19921,-0.00156 0.19921,-0.1015624 C 111.74023,7.0992187 111.74063,7 111.64062,7 105.54063,3.3 98.840234,1.0996094 90.740234,1.0996094 Z M 117.56055,12.371094 c -1.98282,0.117187 -6.59532,1.653515 -15.82032,10.728515 l -0.0996,0.09961 c 0,0 -3.9e-4,0.101562 0.0996,0.101562 8.1,9.6 23.70118,32.5 20.70118,42 V 65.5 c 0.1,0 0.19922,3.91e-4 0.19921,-0.09961 5.1,-6.7 8.20118,-15.200782 8.20118,-24.300782 0,-11.1 -4.50039,-21.2 -11.90039,-28.5 -0.1,-0.1 -0.10118,-0.09961 -0.20118,-0.09961 -0.15,-0.05 -0.51875,-0.167969 -1.17968,-0.128906 z m -53.681644,0.04297 c -0.675,-0.02656 -1.063281,0.110547 -1.238281,0.185547 -0.1,0 -0.09922,0.09961 -0.199219,0.09961 -7.3,7.3 -11.800781,17.4 -11.800781,28.5 0,9.1 3.101172,17.600781 8.201172,24.300781 0,0.1 0.09922,0.09961 0.199219,0.09961 0.1,0 0.1,-0.09922 0,-0.199218 -3.1,-9.5 12.599218,-32.4 20.699218,-42 l 0.101563,-0.09961 c 0,-0.1 -0.0016,-0.101562 -0.101563,-0.101562 -9.224992,-9.15 -13.836328,-10.705469 -15.861328,-10.785158 z m 26.861328,20.886719 c 0,0 -0.09961,-3.8e-4 -0.09961,0.09961 -12,9.1 -32.598828,31.699609 -26.298828,38.099609 7,6.2 16.298437,9.900391 26.398437,9.900391 10.099997,0 19.300397,-3.700391 26.400387,-9.900391 6.2,-6.39999 -14.29882,-28.999609 -26.298824,-38.099609 0,-0.1 -0.101563,-0.09961 -0.101562,-0.09961 z m 24.201176,59.5 c -3.5,0 -6.79961,0.599219 -9.59961,1.699219 -2.9,1.2 -5.400003,2.899219 -7.500003,5.199219 -2.2,2.299999 -3.800391,5.101559 -4.900391,8.101559 -1.1,3 -1.599609,6.49922 -1.599609,10.19922 0,3.7 0.499609,7.19923 1.599609,10.19922 1.1,3 2.700391,5.69999 4.900391,8 2.200003,2.30001 4.700003,4.00117 7.500003,5.20117 2.8,1.09999 6.09961,1.69922 9.59961,1.69922 3.6,0 6.79961,-0.49922 9.59961,-1.69922 2.8,-1.09999 5.3,-2.90117 7.5,-5.20117 2.1,-2.3 3.70077,-5 4.80078,-8 1.10001,-3 1.59961,-6.49922 1.59961,-10.19922 0,-3.8 -0.5996,-7.19923 -1.59961,-10.19922 -1,-3 -2.70077,-5.80156 -4.80078,-8.101559 -2.10001,-2.3 -4.7,-4.099219 -7.5,-5.199219 -2.9,-1.1 -6.09961,-1.699219 -9.59961,-1.699219 z M 3.0410156,93.900391 19.740234,117 1.5410156,142.09961 h 8.1992188 l 14.2011716,-19.5 14.09961,19.5 h 8.199218 L 28.041016,117 44.841797,93.900391 H 36.640625 L 23.941406,111.40039 11.240234,93.900391 Z m 47.0996094,0 v 20.499999 h -6.298828 l -4.5,6.19922 h 10.798828 v 21.5 h 22.5 c 5.2,0 9.2,-1.29923 12,-3.69922 2.8,-2.39999 4.201172,-5.8 4.201172,-10 0,-2.59999 -0.701172,-5.00039 -2.201172,-6.90039 -1.4,-1.9 -3.399609,-3.5 -6.099609,-4.5 4.2,-2.3 6.300781,-5.9 6.300781,-10.5 0,-3.7 -1.300391,-6.799609 -3.900391,-9.099609 -2.6,-2.3 -6.301172,-3.5 -11.201172,-3.5 z m 86.499995,0 L 153.44141,117 135.24023,142.09961 h 8.20118 l 14.09961,-19.5 14.19921,19.5 h 8.20118 L 161.64062,117 178.44141,93.900391 h -8.20118 L 157.54102,111.40039 144.8418,93.900391 Z m -21.69921,5.5 c 4.8,0 8.69961,1.699999 11.59961,4.999999 2.90001,3.3 4.30078,7.89962 4.30078,13.59961 0,5.69999 -1.40078,10.2 -4.30078,13.5 -2.9,3.3 -6.79961,5 -11.59961,5 -4.9,0 -8.69961,-1.7 -11.59961,-5 -2.9,-3.29998 -4.400394,-7.8 -4.400394,-13.5 0,-5.7 1.500394,-10.1996 4.400394,-13.59961 2.9,-3.3 6.79961,-4.999999 11.59961,-4.999999 z m -57.500004,0.798829 h 13.798828 c 2.7,0 4.801172,0.60078 6.201172,1.80078 1.5,1.2 2.199219,2.9 2.199219,5 0,2.5 -0.699609,4.39961 -2.099609,5.59961 -1.4,1.3 -3.500782,1.90039 -6.300782,1.90039 H 57.441406 Z m 0,20.40039 h 14.900391 c 3,0 5.298828,0.60039 6.798828,1.90039 1.5,1.2 2.300781,3.19922 2.300781,5.69922 0,2.39999 -0.80039,4.30153 -2.40039,5.60156 -1.6,1.19999 -3.900782,1.89844 -6.800782,1.89844 H 57.441406 Z"/>
      <path d="m 35.772936,150.85358 c -2.099985,0 -3.799973,0.5004 -4.999964,1.40039 -1.199992,0.89999 -1.800768,2.19883 -1.800768,3.79883 0,1.6 0.499997,2.80117 1.49999,3.70117 0.999993,0.9 2.499982,1.60001 4.499968,2 l 1.601548,0.39844 c 1.599989,0.39999 2.79842,0.80117 3.398416,1.20117 0.599995,0.5 0.900383,1.10041 0.900383,1.90039 0,1 -0.399607,1.79845 -1.099602,2.39844 -0.799994,0.5 -1.900766,0.80078 -3.300756,0.80078 -1.699988,0 -2.998419,-0.39959 -3.898412,-1.09961 -0.899994,-0.7 -1.300771,-1.80117 -1.300771,-3.20117 h -2.80076 c 0,2.2 0.701165,3.90154 2.201154,5.10156 1.39999,1.2 3.400366,1.69922 5.900348,1.69922 2.299984,0 4.19997,-0.5 5.499961,-1.5 1.29999,-1 1.999985,-2.49922 1.999985,-4.19922 0,-1.49996 -0.499996,-2.70157 -1.499989,-3.60156 -0.999993,-0.89999 -2.600761,-1.60001 -4.800746,-2 l -1.699207,-0.39844 c -1.599989,-0.3 -2.700761,-0.80117 -3.300757,-1.20117 -0.599995,-0.39999 -0.900383,-1.10001 -0.900383,-2 0,-0.89999 0.299998,-1.5 0.999993,-2 0.699995,-0.5 1.600378,-0.69922 2.900369,-0.69922 1.599988,0 2.79998,0.3004 3.499975,0.90039 0.699995,0.60001 1.099212,1.49922 1.199211,2.69922 h 2.999979 c 0,-1.89999 -0.699995,-3.39999 -1.999986,-4.5 -1.299991,-1.10001 -3.199197,-1.59961 -5.699179,-1.59961 z m 103.598924,0 c -2.09998,0 -3.79997,0.5004 -4.99997,1.40039 -1.19999,0.89999 -1.7988,2.19883 -1.7988,3.79883 0,1.6 0.49999,2.80117 1.49999,3.70117 0.99999,0.9 2.49998,1.60001 4.49996,2 l 1.5996,0.39844 c 1.59999,0.39999 2.80037,0.80117 3.40037,1.20117 0.6,0.5 0.89842,1.10041 0.89842,1.90039 0,1 -0.39959,1.79845 -1.0996,2.39844 -0.79999,0.5 -1.89881,0.80078 -3.2988,0.80078 -1.69998,0 -3.00037,-0.39959 -3.90036,-1.09961 -0.89999,-0.7 -1.30078,-1.80117 -1.30078,-3.20117 h -2.90037 c 0,2.2 0.70118,3.90154 2.20117,5.10156 1.39999,1.2 3.40036,1.69922 5.90034,1.69922 2.3,0 4.19996,-0.5 5.49996,-1.5 1.3,-1 1.99999,-2.49922 1.99999,-4.19922 0.20002,-1.49996 -0.30078,-2.70157 -1.30077,-3.60156 -0.99999,-0.89999 -2.60078,-1.60001 -4.80076,-2 l -1.69919,-0.39844 c -1.59999,-0.3 -2.70078,-0.80117 -3.30077,-1.20117 -0.6,-0.39999 -0.89842,-1.10001 -0.89842,-2 0,-0.89999 0.29999,-1.5 0.99999,-2 0.69999,-0.5 1.59842,-0.69922 2.89841,-0.69922 1.59999,0 2.79998,0.3004 3.49997,0.90039 0.7,0.60001 1.10118,1.49922 1.20117,2.69922 h 2.90037 c 0,-1.89999 -0.69999,-3.39999 -1.99998,-4.5 -1.29999,-1.10001 -3.20116,-1.59961 -5.70114,-1.59961 z m -87.39982,0.5 v 19.29883 h 13.701072 v -2.69922 H 54.872409 v -5.90039 h 9.599542 v -2.5 h -9.599542 v -5.59961 h 10.800703 v -2.59961 z m 22.101402,0 v 19.29883 h 2.898419 v -7.89844 h 5.60152 c 1.09999,0 1.898429,0.29883 2.398428,0.79883 0.499999,0.5 0.800776,1.39959 0.800776,2.59961 l 0.0996,2.10156 c 0,1.10001 0.199608,1.89999 0.599607,2.5 h 2.99999 c -0.29999,-0.70003 -0.499608,-1.5 -0.599608,-2.5 l -0.19922,-3 c 0,-1.10001 -0.301168,-1.90154 -0.701167,-2.60156 -0.399999,-0.60001 -1.099995,-1.09884 -1.999993,-1.29883 0.999997,-0.3 1.800774,-0.90116 2.300771,-1.70117 0.599999,-0.8 0.900387,-1.8 0.900387,-3 0,-1.7 -0.600778,-2.99845 -1.800773,-3.89844 -1.199994,-0.89999 -2.80038,-1.40039 -4.900368,-1.40039 z m 23.798705,0 v 19.29883 h 2.900373 v -19.29883 z m 12.599523,0 v 19.29883 h 13.8007 v -2.69922 h -10.90033 v -5.90039 h 9.59955 v -2.5 h -9.59955 v -5.59961 h 10.90033 v -2.59961 z m -33.29864,2.5 h 5.199183 c 1.199989,0 2.200767,0.29883 2.800766,0.79883 0.599996,0.5 0.999996,1.30078 0.999996,2.30078 0,1 -0.300389,1.90039 -0.900387,2.40039 -0.599999,0.60001 -1.499607,0.90039 -2.599597,0.90039 H 77.17303 Z"/>
   </g>
</svg>
