<?xml version="1.0" encoding="UTF-8" standalone="no"?>
<svg
   xmlns:dc="http://purl.org/dc/elements/1.1/"
   xmlns:cc="http://creativecommons.org/ns#"
   xmlns:rdf="http://www.w3.org/1999/02/22-rdf-syntax-ns#"
   xmlns:svg="http://www.w3.org/2000/svg"
   xmlns="http://www.w3.org/2000/svg"
   xmlns:sodipodi="http://sodipodi.sourceforge.net/DTD/sodipodi-0.dtd"
   xmlns:inkscape="http://www.inkscape.org/namespaces/inkscape"
   version="1.1"
   id="Ebene_1"
   x="0px"
   y="0px"
   width="300"
   height="300"
   viewBox="0 0 300 300"
   enable-background="new 0 0 871 512"
   xml:space="preserve"
   sodipodi:docname="Xbox_360_-_Logo.svg"
   inkscape:version="1.0.2 (e86c870879, 2021-01-15, custom)">
<g
   id="g159"
   transform="matrix(0.98420353,0,0,0.98276557,-251.43448,-29.842659)">
	<g
   id="g134">
		
			<radialGradient
   id="SVGID_1_"
   cx="343.49219"
   cy="177.81641"
   r="96.351501"
   gradientTransform="matrix(1.1328,0,0,1.083,-52.415,-16.8768)"
   gradientUnits="userSpaceOnUse">
			<stop
   offset="0.0112"
   style="stop-color:#FFFFFF"
   id="stop2" />
			<stop
   offset="0.3198"
   style="stop-color:#FFFFFE"
   id="stop4" />
			<stop
   offset="0.431"
   style="stop-color:#FDFDF9"
   id="stop6" />
			<stop
   offset="0.5103"
   style="stop-color:#FAFBF1"
   id="stop8" />
			<stop
   offset="0.5744"
   style="stop-color:#F5F8E5"
   id="stop10" />
			<stop
   offset="0.6293"
   style="stop-color:#EFF3D4"
   id="stop12" />
			<stop
   offset="0.6779"
   style="stop-color:#E8EEBE"
   id="stop14" />
			<stop
   offset="0.7219"
   style="stop-color:#DFE7A2"
   id="stop16" />
			<stop
   offset="0.7623"
   style="stop-color:#D5E080"
   id="stop18" />
			<stop
   offset="0.7983"
   style="stop-color:#C9D756"
   id="stop20" />
			<stop
   offset="0.8315"
   style="stop-color:#BACF20"
   id="stop22" />
			<stop
   offset="0.8912"
   style="stop-color:#97C129"
   id="stop24" />
			<stop
   offset="0.9621"
   style="stop-color:#6BB42F"
   id="stop26" />
			<stop
   offset="1"
   style="stop-color:#58AE31"
   id="stop28" />
		</radialGradient>
		<path
   fill="url(#SVGID_1_)"
   d="m 313.509,63.231 c 25.37,-7.619 62.111,2.064 95.192,24.188 l 0.387,153.532 c -12.13,-2.412 -24.771,-7.464 -36.608,-14.24 -12.052,-6.898 -24.125,-15.857 -36.58,-26.467 L 367.706,118.56 C 351.201,107.853 286.788,89.658 295.111,80.409 303.436,71.16 313.509,63.231 313.509,63.231 Z"
   id="path31"
   style="fill:url(#SVGID_1_)" />
		
			<radialGradient
   id="SVGID_2_"
   cx="90.1465"
   cy="177.81641"
   r="96.351501"
   gradientTransform="matrix(-1.1328,0,0,1.083,581.0518,-16.8768)"
   gradientUnits="userSpaceOnUse">
			<stop
   offset="0.0112"
   style="stop-color:#FFFFFF"
   id="stop33" />
			<stop
   offset="0.3198"
   style="stop-color:#FFFFFE"
   id="stop35" />
			<stop
   offset="0.431"
   style="stop-color:#FDFDF9"
   id="stop37" />
			<stop
   offset="0.5103"
   style="stop-color:#FAFBF1"
   id="stop39" />
			<stop
   offset="0.5744"
   style="stop-color:#F5F8E5"
   id="stop41" />
			<stop
   offset="0.6293"
   style="stop-color:#EFF3D4"
   id="stop43" />
			<stop
   offset="0.6779"
   style="stop-color:#E8EEBE"
   id="stop45" />
			<stop
   offset="0.7219"
   style="stop-color:#DFE7A2"
   id="stop47" />
			<stop
   offset="0.7623"
   style="stop-color:#D5E080"
   id="stop49" />
			<stop
   offset="0.7983"
   style="stop-color:#C9D756"
   id="stop51" />
			<stop
   offset="0.8315"
   style="stop-color:#BACF20"
   id="stop53" />
			<stop
   offset="0.8912"
   style="stop-color:#97C129"
   id="stop55" />
			<stop
   offset="0.9621"
   style="stop-color:#6BB42F"
   id="stop57" />
			<stop
   offset="1"
   style="stop-color:#58AE31"
   id="stop59" />
		</radialGradient>
		<path
   fill="url(#SVGID_2_)"
   d="m 502.124,63.231 c -25.369,-7.619 -62.11,2.064 -95.192,24.188 l -0.386,153.532 c 12.13,-2.412 24.771,-7.464 36.607,-14.24 12.052,-6.898 24.125,-15.857 36.58,-26.467 L 447.928,118.56 C 464.432,107.853 528.847,89.658 520.522,80.409 512.198,71.16 502.124,63.231 502.124,63.231 Z"
   id="path62"
   style="fill:url(#SVGID_2_)" />
		
			<radialGradient
   id="SVGID_3_"
   cx="543.35638"
   cy="448.80759"
   r="86.041702"
   gradientTransform="matrix(-0.9659,-0.7017,0.8867,-1.1157,528.1864,1112.2975)"
   gradientUnits="userSpaceOnUse">
			<stop
   offset="0.0112"
   style="stop-color:#FFFFFF"
   id="stop64" />
			<stop
   offset="0.3262"
   style="stop-color:#FFFFFE"
   id="stop66" />
			<stop
   offset="0.4397"
   style="stop-color:#FDFDF9"
   id="stop68" />
			<stop
   offset="0.5205"
   style="stop-color:#FAFBF1"
   id="stop70" />
			<stop
   offset="0.5859"
   style="stop-color:#F5F8E5"
   id="stop72" />
			<stop
   offset="0.642"
   style="stop-color:#EFF3D4"
   id="stop74" />
			<stop
   offset="0.6916"
   style="stop-color:#E8EEBE"
   id="stop76" />
			<stop
   offset="0.7365"
   style="stop-color:#DFE7A2"
   id="stop78" />
			<stop
   offset="0.7778"
   style="stop-color:#D5E080"
   id="stop80" />
			<stop
   offset="0.8145"
   style="stop-color:#C9D756"
   id="stop82" />
			<stop
   offset="0.8483"
   style="stop-color:#BACF20"
   id="stop84" />
			<stop
   offset="0.8549"
   style="stop-color:#B4CC22"
   id="stop86" />
			<stop
   offset="0.8959"
   style="stop-color:#91BF2A"
   id="stop88" />
			<stop
   offset="0.9349"
   style="stop-color:#74B62E"
   id="stop90" />
			<stop
   offset="0.9706"
   style="stop-color:#5FB031"
   id="stop92" />
			<stop
   offset="1"
   style="stop-color:#58AE31"
   id="stop94" />
		</radialGradient>
		<path
   fill="url(#SVGID_3_)"
   d="m 313.33,302.755 86.362,-98.063 -32.08,-86.042 c -13.463,11.227 -26.817,24.85 -39.191,40.421 -30.449,38.314 -56.863,92.204 -47.676,108.106 9.186,15.904 32.585,35.578 32.585,35.578 z"
   id="path97"
   style="fill:url(#SVGID_3_)" />
		
			<radialGradient
   id="SVGID_4_"
   cx="544.22748"
   cy="448.3779"
   r="86.041298"
   gradientTransform="matrix(0.9659,-0.7017,-0.8867,-1.1157,286.2882,1112.2975)"
   gradientUnits="userSpaceOnUse">
			<stop
   offset="0.0112"
   style="stop-color:#FFFFFF"
   id="stop99" />
			<stop
   offset="0.3262"
   style="stop-color:#FFFFFE"
   id="stop101" />
			<stop
   offset="0.4397"
   style="stop-color:#FDFDF9"
   id="stop103" />
			<stop
   offset="0.5205"
   style="stop-color:#FAFBF1"
   id="stop105" />
			<stop
   offset="0.5859"
   style="stop-color:#F5F8E5"
   id="stop107" />
			<stop
   offset="0.642"
   style="stop-color:#EFF3D4"
   id="stop109" />
			<stop
   offset="0.6916"
   style="stop-color:#E8EEBE"
   id="stop111" />
			<stop
   offset="0.7365"
   style="stop-color:#DFE7A2"
   id="stop113" />
			<stop
   offset="0.7778"
   style="stop-color:#D5E080"
   id="stop115" />
			<stop
   offset="0.8145"
   style="stop-color:#C9D756"
   id="stop117" />
			<stop
   offset="0.8483"
   style="stop-color:#BACF20"
   id="stop119" />
			<stop
   offset="0.8549"
   style="stop-color:#B4CC22"
   id="stop121" />
			<stop
   offset="0.8959"
   style="stop-color:#91BF2A"
   id="stop123" />
			<stop
   offset="0.9349"
   style="stop-color:#74B62E"
   id="stop125" />
			<stop
   offset="0.9706"
   style="stop-color:#5FB031"
   id="stop127" />
			<stop
   offset="1"
   style="stop-color:#58AE31"
   id="stop129" />
		</radialGradient>
		<path
   fill="url(#SVGID_4_)"
   d="m 502.368,302.625 -86.362,-98.063 32.079,-86.042 c 13.464,11.227 26.818,24.85 39.192,40.421 30.448,38.314 56.864,92.203 47.677,108.105 -9.185,15.905 -32.586,35.579 -32.586,35.579 z"
   id="path132"
   style="fill:url(#SVGID_4_)" />
	</g>
	
		<radialGradient
   id="SVGID_5_"
   cx="393.29739"
   cy="144.7197"
   r="250.8264"
   gradientTransform="matrix(1.0751,0,0,1.0785,-28.7017,-14.0815)"
   gradientUnits="userSpaceOnUse">
		<stop
   offset="0.0281"
   style="stop-color:#FFFFFF"
   id="stop136" />
		<stop
   offset="0.1046"
   style="stop-color:#E3E2E3"
   id="stop138" />
		<stop
   offset="0.259"
   style="stop-color:#B3B1B2"
   id="stop140" />
		<stop
   offset="0.3771"
   style="stop-color:#969696"
   id="stop142" />
		<stop
   offset="0.4438"
   style="stop-color:#8C8C8D"
   id="stop144" />
		<stop
   offset="0.5184"
   style="stop-color:#919191"
   id="stop146" />
		<stop
   offset="0.6059"
   style="stop-color:#9F9F9F"
   id="stop148" />
		<stop
   offset="0.6998"
   style="stop-color:#B8B7B7"
   id="stop150" />
		<stop
   offset="0.7977"
   style="stop-color:#DCDCDC"
   id="stop152" />
		<stop
   offset="0.809"
   style="stop-color:#E1E1E1"
   id="stop154" />
	</radialGradient>
	<path
   fill="url(#SVGID_5_)"
   d="M 288.771,278.329 C 267.933,252.233 255.47,219.12 255.47,183.082 c 0,-40.252 15.55,-76.862 40.953,-104.111 0,0 26.592,11.807 71.393,39.464 -99.941,103.714 -79.045,159.894 -79.045,159.894 z M 407.889,89.035 C 407.827,88.99 407.791,88.963 407.791,88.963 468.789,44.885 506.67,67.044 506.67,67.044 480.091,44.179 445.549,30.366 407.791,30.366 c -37.758,0 -72.299,13.813 -98.878,36.676 0,0 37.881,-22.675 98.853,21.917 M 297.771,288.346 c 27.679,29.13 66.736,47.281 110.02,47.281 43.371,0 82.499,-18.225 110.187,-47.456 0,0 -16.105,-66.628 -110.704,-136.634 -84.776,62.746 -109.503,136.809 -109.503,136.809 z m 229.213,-10.017 c 20.837,-26.096 33.301,-59.209 33.301,-95.247 0,-40.252 -15.551,-76.861 -40.955,-104.111 0,0 -26.592,11.807 -71.392,39.464 99.94,103.714 79.046,159.894 79.046,159.894 z"
   id="path157"
   style="fill:url(#SVGID_5_)" />
</g>

</svg>
